# AST/ASF file generated using VICON BodyLanguage
# -----------------------------------------------
:version 1.10
:name VICON
:units
  mass 1.0
  length 0.45
  angle deg
:documentation
   .ast/.asf automatically generated from VICON data using
   VICON BodyBuilder and BodyLanguage model FoxedUp or BRILLIANT.MOD
:root
   order TX TY TZ RX RY RZ
   axis XYZ
   position 0 0 0  
   orientation 0 -0 0 
:bonedata
  begin
     id 1 
     name lhipjoint
     direction 0.515797 -0.759363 0.396637 
     length 2.47888 
     axis 0 -0 0  XYZ
  end
  begin
     id 2 
     name lfemur
     direction 0.34202 -0.939693 0  
     length 6.81885  
     axis 0 -0 20  XYZ
    dof rx ry rz
    limits (-160.0 20.0)
           (-70.0 70.0)
           (-60.0 70.0)
  end
  begin
     id 3 
     name ltibia
     direction 0.342037 -0.939687 0   
     length 7.89258   
     axis 0 -0 20   XYZ
    dof rx
    limits (-10.0 170.0)
  end
  begin
     id 4 
     name lfoot
     direction 0.173497 -0.476678 0.861787   
     length 2.51543   
     axis -90 -1.13533e-015 20   XYZ
    dof rx rz
    limits (-45.0 90.0)
           (-70.0 20.0)
  end
  begin
     id 5 
     name ltoes
     direction 1.53564e-011 -4.21897e-011 1   
     length 1.21388   
     axis -90 -1.13533e-015 20   XYZ
    dof rx
    limits (-90.0 20.0)
  end
  begin
     id 6 
     name rhipjoint
     direction -0.489454 -0.772941 0.403729   
     length 2.43534  
     axis 0 -0 0  XYZ 
  end
  begin
     id 7 
     name rfemur
     direction -0.34202 -0.939693 0   
     length 7.10357   
     axis 0 -0 -20   XYZ
    dof rx ry rz
    limits (-160.0 20.0)
           (-70.0 70.0)
           (-70.0 60.0)
  end
  begin
     id 8 
     name rtibia
     direction -0.34202 -0.939693 0   
     length 9.16127   
     axis 0 -0 -20   XYZ
    dof rx
    limits (-10.0 170.0)
 end
 begin
     id 9 
     name rfoot
     direction -0.270974 -0.748671 0.605033   
     length 1.74894  
     axis -90 1.13533e-015 -20   XYZ
    dof rx rz
    limits (-45.0 90.0)
           (-20.0 70.0)
  end
  begin
     id 10 
     name rtoes
     direction -1.53557e-011 -4.21759e-011 1   
     length 0.787585   
     axis -90 1.13533e-015 -20   XYZ
    dof rx
    limits (-90.0 20.0)
  end
  begin
     id 11 
     name lowerback
     direction -0.0140249 0.999561 0.0260968   
     length 2.16963   
     axis 0 -0 0   XYZ
    dof rx ry rz
    limits (-20.0 45.0)
           (-30.0 30.0)
           (-30.0 30.0)
  end
  begin
     id 12 
     name upperback
     direction 0.00860018 0.999959 -0.002711   
     length 2.1726   
     axis 0 -0 0   XYZ
    dof rx ry rz
    limits (-20.0 45.0)
           (-30.0 30.0)
           (-30.0 30.0)
  end
  begin
     id 13 
     name thorax
     direction 0.015211 0.999782 -0.0143191   
     length 2.17061   
     axis 0 -0 0   XYZ
    dof rx ry rz
    limits (-20.0 45.0)
           (-30.0 30.0)
           (-30.0 30.0)
  end
  begin
     id 14 
     name lowerneck
     direction -0.0140143 0.999447 0.030145   
     length 2.26749   
     axis 0 -0 0   XYZ
    dof rx ry rz
    limits (-20.0 45.0)
           (-30.0 30.0)
           (-30.0 30.0)
  end
  begin
     id 15 
     name upperneck
     direction 0.118062 0.961438 -0.248392   
     length 2.22728   
     axis 0 -0 0   XYZ
    dof rx ry rz
    limits (-20.0 45.0)
           (-30.0 30.0)
           (-30.0 30.0)
  end
  begin
     id 16
     name head
     direction 0.0431885 0.9954 -0.085514  
     length 2.28786  
     axis 0 -0 0   XYZ
    dof rx ry rz
    limits (-20.0 45.0)
           (-30.0 30.0)
           (-30.0 30.0)
  end
  begin
     id 17 
     name lclavicle
     direction 0.912126 0.409548 0.0172323  
     length 4.31571  
     axis 0 -0 0   XYZ
    dof ry rz
    limits (-20.0 10.0)
           (0.0 20.0)
  end
  begin
     id 18 
     name lhumerus
     direction 1 -4.48977e-011 1.93091e-027   
     length 5.13658   
     axis 180 -30 -90   XYZ
    dof rx ry rz
    limits (-60.0 90.0)
           (-90.0 90.0)
           (-90.0 90.0)
  end
  begin
     id 19
     name lradius
     direction 1 -4.48916e-011 6.84018e-027   
     length 3.22473   
     axis 180 -30 -90   XYZ
    dof rx
    limits (-10.0 170.0)
  end
  begin
     id 20
     name lwrist
     direction 1 -4.48987e-011 7.01981e-027   
     length 1.61236   
     axis -4.37994e-015 90 90   XYZ
    dof ry
    limits (-180.0 0.0)
 end
  begin
     id 21 
     name lhand
     direction 1 -4.49037e-011 1.40335e-026   
     length 0.936406   
     axis -8.96029e-015 90 90   XYZ
    dof rx rz
    limits (-90.0 90.0)
           (-45.0 45.0)
  end
  begin
     id 22 
     name lfingers
     direction 1 -4.48886e-011 2.8104e-026   
     length 0.754955   
     axis -1.79203e-014 90 90   XYZ
    dof rx
    limits (0.0 90.0)
  end
  begin
     id 23
     name lthumb
     direction 0.707107 -6.34937e-011 0.707107   
     length 1.08397   
     axis -90 45 -4.48555e-014   XYZ
    dof rx rz
    limits (-45.0 45.0)
           (-45.0 45.0)
  end
  begin
     id 24 
     name rclavicle
     direction -0.947962 0.317997 0.0156638   
     length 4.86918  
     axis 0 -0 0   XYZ 
    dof ry rz
    limits (-10.0 20.0)
           (-20.0 0.0)
  end
  begin
     id 25 
     name rhumerus
     direction -1 -4.48951e-011 2.80534e-018  
     length 5.60911   
     axis 180 30 90   XYZ
    dof rx ry rz
    limits (-90.0 60.0)
           (-90.0 90.0)
           (-90.0 90.0)
  end
  begin
     id 26 
     name rradius
     direction -1 -4.4898e-011 2.11315e-027   
     length 3.38704   
     axis 180 30 90   XYZ
    dof rx
    limits (-10.0 170.0)
  end
  begin
     id 27 
     name rwrist
     direction -1 -4.48933e-011 7.02314e-027   
     length 1.69352   
     axis -4.37994e-015 -90 -90   XYZ
    dof ry
    limits (-180.0 0.0)
  end
  begin
     id 28
     name rhand
     direction -1 -4.48937e-011 1.40458e-026   
     length 0.755878   
     axis -8.96029e-015 -90 -90   XYZ
    dof rx rz
    limits (-90.0 90.0)
           (-45.0 45.0)
  end
  begin
     id 29
     name rfingers
     direction -1 -4.4901e-011 2.80737e-026   
     length 0.609409   
     axis -1.79203e-014 -90 -90   XYZ
    dof rx
    limits (0.0 90.0)
  end
  begin
     id 30
     name rthumb
     direction -0.707107 -6.34968e-011 0.707107   
     length 0.874992   
     axis -90 -45 4.48555e-014   XYZ
    dof rx rz
    limits (-45.0 45.0)
           (-45.0 45.0)
  end
:hierarchy
  begin
    root lhipjoint rhipjoint lowerback
    lhipjoint lfemur
    lfemur ltibia
    ltibia lfoot
    lfoot ltoes
    rhipjoint rfemur
    rfemur rtibia
    rtibia rfoot
    rfoot rtoes
    lowerback upperback
    upperback thorax
    thorax lowerneck lclavicle rclavicle
    lowerneck upperneck
    upperneck head
    lclavicle lhumerus
    lhumerus lradius
    lradius lwrist
    lwrist lhand lthumb
    lhand lfingers
    rclavicle rhumerus
    rhumerus rradius
    rradius rwrist
    rwrist rhand rthumb
    rhand rfingers
  end

#!OML:ASF C:\ViconDB\ViconDB\414\Spring2016\041811\Spring2016.ASF
:FULLY-SPECIFIED
:DEGREES
1
root 9.92797 18.1706 4.06912 -176.503 -1.40192 -178.717
lowerback -5.06476 1.27539 -1.87218
upperback -0.0719941 1.79141 0.16803
thorax 2.70172 0.861507 1.35263
lowerneck -10.2995 -1.53697 -7.48126
upperneck 19.0656 -4.46216 13.1969
head 8.0072 -1.86322 5.18837
rclavicle -4.95098e-015 -1.45113e-014
rhumerus -48.9382 -20.3482 -77.6905
rradius 41.1114
rwrist 35.8019
rhand -32.3241 -12.8224
rfingers 7.12502
rthumb -5.56163 -42.7294
lclavicle -4.95098e-015 -1.45113e-014
lhumerus -41.5497 -0.988699 84.0185
lradius 27.9284
lwrist -34.9835
lhand -26.3718 14.0624
lfingers 7.12502
lthumb 0.186626 44.042
rfemur -4.71575 -14.0932 18.0814
rtibia 20.6893
rfoot -170.377 4.51695
rtoes -17.7043
lfemur -7.90788 -9.63959 -12.8941
ltibia 25.5091
lfoot -25.0808 14.8323
ltoes -11.4714
2
root 9.92783 18.1705 4.0632 -176.486 -1.39418 -178.761
lowerback -5.10526 1.25015 -1.9586
upperback -0.0744379 1.76312 0.176705
thorax 2.72009 0.845904 1.40901
lowerneck -10.2329 -1.66928 -7.68282
upperneck 18.959 -4.62975 13.3278
head 7.98634 -1.94956 5.24918
rclavicle -2.13507e-014 1.98785e-016
rhumerus -48.882 -20.3442 -77.7256
rradius 41.0888
rwrist 35.8455
rhand -32.4181 -12.7255
rfingers 7.12502
rthumb -5.65238 -42.6301
lclavicle -2.13507e-014 1.98785e-016
lhumerus -41.537 -0.979062 84.1842
lradius 27.9837
lwrist -34.7329
lhand -26.4745 14.0927
lfingers 7.12502
lthumb 0.0874715 44.0725
rfemur -4.74484 -14.2025 18.0175
rtibia 20.7436
rfoot -170.292 4.60207
rtoes -17.6602
lfemur -7.88341 -9.58781 -12.939
ltibia 25.4652
lfoot -25.0358 14.8097
ltoes -11.5667
3
root 9.92635 18.171 4.05879 -176.456 -1.35395 -178.794
lowerback -5.14238 1.24384 -2.00358
upperback -0.0821339 1.7581 0.160236
thorax 2.73234 0.842609 1.41777
lowerneck -10.2231 -1.76024 -7.88986
upperneck 18.9089 -4.77797 13.5811
head 7.99573 -2.01776 5.35677
rclavicle 2.50469e-014 5.36719e-015
rhumerus -48.7877 -20.2745 -77.8768
rradius 41.1424
rwrist 35.5858
rhand -32.2625 -12.7982
rfingers 7.12502
rthumb -5.50214 -42.7068
lclavicle 2.50469e-014 5.36719e-015
lhumerus -41.5342 -0.934752 84.2437
lradius 28.0439
lwrist -34.8708
lhand -26.3782 14.1515
lfingers 7.12502
lthumb 0.180501 44.1312
rfemur -4.774 -14.2203 17.9694
rtibia 20.761
rfoot -170.28 4.64826
rtoes -17.6578
lfemur -7.8782 -9.6112 -12.9892
ltibia 25.4505
lfoot -25.0512 14.8698
ltoes -11.5743
4
root 9.92369 18.1713 4.05447 -176.412 -1.27689 -178.79
lowerback -5.18834 1.25648 -1.96551
upperback -0.107703 1.77315 0.138946
thorax 2.73298 0.850524 1.37641
lowerneck -10.1912 -1.84473 -8.03434
upperneck 18.8683 -4.91454 13.7588
head 8.00037 -2.08296 5.42859
rclavicle -1.70458e-014 -1.59028e-015
rhumerus -48.7446 -20.2187 -77.9904
rradius 41.1944
rwrist 35.5208
rhand -32.1885 -12.8692
rfingers 7.12502
rthumb -5.43069 -42.7796
lclavicle -1.70458e-014 -1.59028e-015
lhumerus -41.5551 -0.98901 84.3816
lradius 28.1845
lwrist -34.448
lhand -26.2345 14.0042
lfingers 7.12502
lthumb 0.319271 43.9837
rfemur -4.83025 -14.2356 17.9651
rtibia 20.7646
rfoot -170.198 4.68257
rtoes -17.7571
lfemur -7.85687 -10.0954 -13.0513
ltibia 25.4478
lfoot -25.3275 15.3128
ltoes -11.319
